<?xml version="1.0" encoding="utf-8"?>
<!-- Generator: Adobe Illustrator 24.3.0, SVG Export Plug-In . SVG Version: 6.00 Build 0)  -->
<svg version="1.1" id="Layer_1" xmlns="http://www.w3.org/2000/svg" xmlns:xlink="http://www.w3.org/1999/xlink" x="0px" y="0px"
	 viewBox="0 0 440 290" style="enable-background:new 0 0 440 290;" xml:space="preserve">
<style type="text/css">
	.st0{fill:#B3B5B8;stroke:#010101;stroke-miterlimit:10;}
	.st1{display:none;fill:#B3B5B8;stroke:#010101;stroke-miterlimit:10;}
</style>
<g id="Трапеция_верхняя">
	<path id="_x34__9_" class="st0" d="M145.7,19.7c-8.5,5.3-17,10.5-25.6,15.8c8.5,0.2,17,0.4,25.6,0.5
		C145.7,30.6,145.7,25.2,145.7,19.7z"/>
	<path id="_x33__13_" class="st0" d="M167.1,19.1c8,5.3,16,10.5,24,15.8c-8,0.2-16,0.4-24,0.5C167.1,30,167.1,24.5,167.1,19.1z"/>
	<path id="_x32_" class="st0" d="M292.1,13.4c-10.9,6.8-21.8,13.6-32.8,20.4c8.5,0.2,17,0.4,25.6,0.5c2.3-3.6,4.6-7.2,6.9-10.8
		C291.9,20.2,292,16.8,292.1,13.4z"/>
	<path id="_x31_" class="st0" d="M293.4,13.4c10.9,6.8,21.8,13.6,32.8,20.4c-8.5,0.2-17,0.4-25.6,0.5c-2.3-3.6-4.6-7.2-6.9-10.8
		C293.6,20.2,293.5,16.8,293.4,13.4z"/>
</g>
<g id="Трапеция_нижняя">
	<path id="_x32__14_" class="st0" d="M257.3,35.3c10,0.3,20,0.6,30.1,0.8c1.5,2.5,3,5.1,4.5,7.7c0,14.3,0.1,28.7,0.1,43
		c-4.9-7.3-9.8-14.7-14.7-22c0.4-7.4,0.7-14.8,1.1-22.2c-4.1-0.1-8.1-0.2-12.2-0.3C263.1,39.9,260.2,37.6,257.3,35.3z"/>
	<path id="_x31__23_" class="st0" d="M328.1,35.3c-10,0.3-20,0.5-30.1,0.8c-1.5,2.5-3,5.1-4.5,7.7c0,14.3-0.1,28.7-0.1,43
		c4.9-7.3,9.8-14.7,14.7-22c-0.4-7.4-0.7-14.8-1.1-22.2c4-0.1,8.1-0.2,12.1-0.2C322.1,40,325.1,37.7,328.1,35.3z"/>
	<path class="st0" d="M341.5,53"/>
</g>
<g id="Широчайшая_x2C__ромбовидная_x2C__круглая">
	<path id="_x34__1_" class="st0" d="M182.8,73.9c-1.3,4-2.7,7.9-4,11.9c0.6-6.1,1.3-12.2,1.9-18.3c0.9-0.8,1.8-1.7,2.8-2.5
		C183.3,68,183.1,70.9,182.8,73.9z"/>
	<path id="_x33__1_" class="st1" d="M128.2,73.9c1.3,4,2.7,7.9,4,11.9c-0.6-6.1-1.3-12.2-1.9-18.3c-0.9-0.8-1.8-1.7-2.8-2.5
		C127.7,68,127.9,70.9,128.2,73.9z"/>
	<path id="_x32__4_" class="st0" d="M320,43.9c0,0,0.3,5,0.5,7.8c0.9,1.3,1.8,2.5,2.7,3.8c-1,5.5-2,11-2.9,16.4
		c-1.6,5.4-3.2,10.8-4.8,16.2c-0.3,5.4-0.6,10.7-1,16.1c-3.4,2.5-6.8,5.1-10.2,7.6c-0.9,0-2.8-0.1-2.8-0.1s-5.2-15-7.8-22.6
		c5.4-8.1,10.7-16.2,16.1-24.3c-0.4-7-1.3-20.6-1.3-20.6L320,43.9z"/>
	<path id="_x31__8_" class="st0" d="M277,44.1c0,0-0.9,13.6-1.3,20.6c5.4,8.1,10.7,16.2,16.1,24.3c-2.6,7.6-7.8,22.6-7.8,22.6
		s-1.9,0.1-2.8,0.1c-3.4-2.5-6.8-5.1-10.2-7.6c-0.4-5.4-0.7-10.7-1-16.1c-1.6-5.4-3.2-10.8-4.8-16.2c-0.9-5.4-1.9-10.9-2.9-16.4
		c0.9-1.3,1.8-2.5,2.7-3.8c0.2-2.8,0.5-7.8,0.5-7.8L277,44.1z"/>
</g>
<g id="разгибатель_спины">
	<path id="_x31__22_" class="st0" d="M292.7,91l-7.5,22.2c0,0-2.5,0-3.7,0c0,1.2,0.1,2.3,0.1,3.5c3.8,3.6,7.5,7.1,11.3,10.7
		c3.5-3.4,7-6.8,10.6-10.1c0.1-1.4,0.2-2.8,0.2-4.2c-1,0-3.4-0.1-3.4-0.1L292.7,91z"/>
</g>
<g id="Зубчатые_мышцы_x2C__косые_мышцы_пресса">
	<path id="_x32__9_" class="st0" d="M131.7,68.6c2.6,1.5,5.2,2.9,7.8,4.4c0.4,12.5,0.7,25,1.1,37.6c0.7,2,1.4,3.9,2.1,5.9
		c-1.9,2.6-3.8,5.2-5.6,7.7c-2.6-2.2-5.2-4.3-7.9-6.5c0-2.2,0-4.4,0.1-6.7c1.1-1.6,2.3-3.3,3.4-4.9c0.4-5.3,0.8-10.7,1.2-16.1
		C133.2,82.9,132.4,75.7,131.7,68.6z"/>
	<path id="_x31__34_" class="st0" d="M179.3,68.6c-2.6,1.5-5.2,2.9-7.8,4.4c-0.4,12.5-0.7,25-1.1,37.6c-0.7,2-1.4,3.9-2.1,5.9
		c1.9,2.6,3.8,5.2,5.6,7.7c2.6-2.2,5.2-4.3,7.9-6.5c0-2.2,0-4.4-0.1-6.7c-1.1-1.6-2.3-3.3-3.4-4.9c-0.4-5.3-0.8-10.7-1.2-16.1
		C177.8,82.9,178.5,75.7,179.3,68.6z"/>
	<path class="st0" d="M279.8,112.7c-3.1-2.5-6.1-5-9.2-7.4c-1.3,1.7-2.5,3.3-3.8,5c0,3.2,0,6.5,0,9.8c4.4-1.2,8.8-2.5,13.2-3.7
		C279.8,115.1,279.8,113.9,279.8,112.7z"/>
	<path class="st0" d="M306,112.7c3.1-2.5,6.1-5,9.2-7.4c1.3,1.7,2.5,3.3,3.8,5c0,3.2,0,6.5,0,9.8c-4.4-1.2-8.8-2.5-13.2-3.7
		C305.9,115.1,306,113.9,306,112.7z"/>
</g>
<g id="Ягодицы">
	<path id="_x32__11_" class="st0" d="M280.4,117.8c-4.6,1.2-9.1,2.5-13.7,3.8c-0.6,6.2-1.2,12.4-1.8,18.6c1.1,5.3,2.3,10.6,3.5,15.9
		c2.8,0.8,5.6,1.6,8.5,2.4c2.3-0.8,4.6-1.5,7-2.3c2.5-1.7,5-3.4,7.5-5.2c0.2-3.8,0.5-7.6,0.8-11.4c0-3.6-0.1-7.3-0.2-10.9
		C288,125.2,284.2,121.5,280.4,117.8z"/>
	<path id="_x31__18_" class="st0" d="M305.3,117.8c4.6,1.2,9.1,2.5,13.7,3.8c0.6,6.2,1.2,12.4,1.8,18.6c-1.1,5.3-2.3,10.6-3.5,15.9
		c-2.8,0.8-5.6,1.6-8.5,2.4c-2.3-0.8-4.6-1.5-7-2.3c-2.5-1.7-5-3.4-7.5-5.2c-0.2-3.8-0.5-7.6-0.8-11.4c0-3.6,0.1-7.3,0.2-10.9
		C297.7,125.2,301.5,121.5,305.3,117.8z"/>
</g>
<g id="Задняя_поверхность_бедра">
	<path id="_x31__2_" class="st0" d="M283.9,158.1c-0.2,7.6-0.4,15.2-0.6,22.8c0.9,3.1,1.8,6.2,2.8,9.4c-0.3,6.1-0.6,12.2-0.9,18.2
		c-1.9,3.7-3.9,7.5-5.8,11.2c-1.8-2.7-3.5-5.3-5.3-8c-2-0.5-4-1.1-6.1-1.6c-1.8,1.8-3.6,3.6-5.4,5.4c-0.8-9.1-1.6-18.3-2.4-27.4
		c2.6-9.9,5.2-19.8,7.8-29.7c3,0.6,5.9,1.3,8.9,1.9C279.2,159.6,281.5,158.8,283.9,158.1z"/>
	<path id="_x31__6_" class="st0" d="M301.5,158.1c0.2,7.6,0.4,15.2,0.6,22.8c-0.9,3.1-1.8,6.2-2.8,9.4c0.3,6.1,0.6,12.2,0.9,18.2
		c1.9,3.7,3.9,7.5,5.8,11.2c1.8-2.7,3.5-5.3,5.3-8c2-0.5,4-1.1,6.1-1.6c1.8,1.8,3.6,3.6,5.4,5.4c0.8-9.1,1.6-18.3,2.4-27.4
		c-2.6-9.9-5.2-19.8-7.8-29.7c-3,0.6-5.9,1.3-8.9,1.9C306.2,159.6,303.8,158.8,301.5,158.1z"/>
</g>
<g id="Четырёхглавая">
	<path id="_x32__10_" class="st0" d="M264,143.1c0.9,4.6,1.8,9.1,2.7,13.7c-2.3,9-4.7,17.9-7,26.9c-0.2-7.3-0.4-14.6-0.6-21.9
		C260.7,155.5,262.3,149.3,264,143.1z"/>
	<path id="_x31__5_" class="st0" d="M321.6,143.1c-0.9,4.6-1.8,9.1-2.7,13.7c2.3,9,4.7,17.9,7,26.9c0.2-7.3,0.4-14.6,0.6-21.9
		C324.9,155.5,323.3,149.3,321.6,143.1z"/>
	<path id="_x33__2_" class="st0" d="M132.9,132.4c-2.3,5.3-4.6,10.6-6.9,15.9c-1.4,6.3-2.8,12.6-4.3,18.8c0.9,12.3,1.9,24.7,2.8,37
		c1.3-0.7,2.7-1.4,4.1-2.1c1.5-2.7,3-5.4,4.5-8c1.8,4.4,3.6,8.9,5.5,13.4c3.2,0.2,6.5,0.3,9.7,0.5c0.2-7.3,0.5-14.6,0.8-22
		c-1.8-6.9-3.7-13.7-5.5-20.6c-2-4.2-4.1-8.9-5.9-14.3C135.4,144.2,133.9,137.9,132.9,132.4z"/>
	<path id="_x33__3_" class="st0" d="M177.5,132.4c2.3,5.3,4.6,10.6,6.9,15.9c1.4,6.3,2.9,12.6,4.3,18.8c-0.9,12.3-1.9,24.7-2.9,37
		c-1.4-0.7-2.7-1.4-4.1-2.1c-1.5-2.7-3-5.4-4.5-8c-1.8,4.4-3.6,8.9-5.5,13.4c-3.2,0.2-6.5,0.3-9.7,0.5c-0.2-7.3-0.5-14.6-0.8-22
		c1.8-6.9,3.7-13.7,5.5-20.6c2-4.2,4.1-8.9,5.9-14.3C175.1,144.2,176.6,137.9,177.5,132.4z"/>
</g>
<g id="Икры">
	<path id="_x34__2_" class="st0" d="M142.7,221.1c0.8,2.1,1.5,4.1,2.3,6.1c0,4,0,8,0,12.1c-2.8,7.7-5.6,15.4-8.4,23.1
		c-0.6,4.5-1.3,9-1.9,13.5c-0.9-2-1.9-3.9-2.9-5.9c0.4-11.6,0.8-23.2,1.1-34.8c1.4-2.4,2.8-4.9,4.1-7.3
		C139,225.6,140.9,223.4,142.7,221.1z"/>
	<path id="_x33__4_" class="st0" d="M124.5,220c1.3,2.3,2.6,4.6,3.8,6.8c-0.3,14.3-0.6,28.7-0.8,43c-1.1,2-2.1,4-3.1,6
		c-0.1-3-0.2-6.1-0.2-9.2c-1.6-11.2-3.2-22.4-4.8-33.5C121,228.7,122.8,224.4,124.5,220z"/>
	<path id="_x32__8_" class="st0" d="M167.9,221.7c-0.8,2.1-1.5,4.1-2.3,6.1c0,4,0,8,0,12.1c2.8,7.7,5.6,15.4,8.4,23.1
		c0.6,4.5,1.3,9,1.9,13.5c0.9-2,1.9-3.9,2.9-5.9c-0.4-11.6-0.8-23.2-1.1-34.8c-1.4-2.4-2.8-4.9-4.1-7.3
		C171.7,226.3,169.8,224,167.9,221.7z"/>
	<path id="_x31__33_" class="st0" d="M186.2,220.7c-1.3,2.3-2.6,4.6-3.8,6.8c0.3,14.3,0.6,28.7,0.8,43c1.1,2,2.1,4,3.1,6
		c0.1-3,0.2-6.1,0.2-9.2c1.6-11.2,3.2-22.4,4.8-33.5C189.6,229.4,187.9,225,186.2,220.7z"/>
	<path id="_x36_" class="st0" d="M268,212.3c-1.9,1.9-3.9,3.8-5.8,5.7c-1.5,3.6-3,7.2-4.4,10.9c1.6,15.1,3.3,30.2,4.9,45.3
		c1.2-0.9,2.4-1.7,3.6-2.6c1.6,0.2,3.3,0.5,5,0.8c1.2-5.4,2.5-10.8,3.8-16.2c3-7.6,5.9-15.2,8.9-22.8c-1.8-3.9-3.5-7.9-5.2-11.8
		c-1.9-2.7-3.9-5.4-5.8-8.1C271.2,213.1,269.6,212.7,268,212.3z"/>
	<path id="_x35_" class="st0" d="M317.4,212.3c1.9,1.9,3.9,3.8,5.8,5.7c1.5,3.6,3,7.2,4.4,10.9c-1.6,15.1-3.3,30.2-4.9,45.3
		c-1.2-0.9-2.4-1.7-3.6-2.6c-1.6,0.2-3.3,0.5-5,0.8c-1.2-5.4-2.5-10.8-3.8-16.2c-3-7.6-5.9-15.2-8.9-22.8c1.8-3.9,3.5-7.9,5.2-11.8
		c1.9-2.7,3.9-5.4,5.8-8.1C314.2,213.1,315.8,212.7,317.4,212.3z"/>
</g>
<g id="Задняя_дельта">
	<polygon id="_x32__5_" class="st0" points="321.7,42.3 327.3,37.7 333.8,42.3 336.4,54.5 335.1,60 331,56.7 324.9,54.2 322.2,50.9 
			"/>
	<polygon id="_x31__4_" class="st0" points="263.9,42.8 258.3,38.2 251.8,42.8 249.2,55 250.5,60.5 254.6,57.2 260.7,54.7 
		263.4,51.4 	"/>
</g>
<g id="Передняя_дельта">
	<path id="_x31__7_" class="st0" d="M121.8,37.2c0,0,12.7,0.2,21.3,0.4c-4.1,2.2-8.3,4.5-12.4,6.7c-2.6,4.3-5.1,8.6-7.7,12.9
		c-2.7,2.9-5.4,5.7-8.1,8.6c-1.7,0-2.4,0-2.4,0l0-5.2l0.1-8l2.8-10L121.8,37.2z"/>
	<path id="_x31__1_" class="st0" d="M195.9,42.4l2.8,10l0.1,8l0,5.2c0,0-0.7,0-2.4,0c-2.7-2.9-5.4-5.7-8.1-8.6
		c-2.6-4.3-5.1-8.6-7.7-12.9c-4.1-2.2-8.3-4.5-12.4-6.7c8.6-0.2,21.3-0.4,21.3-0.4L195.9,42.4z"/>
</g>
<g id="Средняя_дельта">
	<polygon id="_x31__3_" class="st0" points="117.4,37.1 112,40.7 108.2,52.2 108,60.5 109.9,65.7 111.3,65.7 111.2,52.4 114.3,41.7 
		119.7,37.2 	"/>
	<polygon id="_x32__1_" class="st0" points="194,37.1 199.4,40.7 203.2,52.2 203.4,60.5 201.5,65.7 200.1,65.7 200.2,52.4 
		197.1,41.7 191.7,37.1 	"/>
	<path id="_x33_" class="st0" d="M255.1,35.8c-2.3,1.6-4.5,3.3-6.8,4.9c-1.1,4.7-2.1,9.5-3.2,14.2c0.7,2.6,1.4,5.3,2.1,7.9
		c0.6-0.5,1.3-1.1,1.9-1.6c-0.6-2.1-1.2-4.2-1.8-6.3c1-4.4,1.9-8.7,2.9-13.1c2.2-1.5,4.4-3.1,6.6-4.6
		C256.3,36.8,255.7,36.3,255.1,35.8z"/>
	<path id="_x33__5_" class="st0" d="M330.5,35.3c2.3,1.6,4.5,3.3,6.8,4.9c1.1,4.7,2.1,9.5,3.2,14.2c-0.7,2.6-1.4,5.3-2.1,7.9
		c-0.6-0.5-1.3-1.1-1.9-1.6c0.6-2.1,1.2-4.2,1.8-6.3c-1-4.4-1.9-8.7-2.9-13.1c-2.2-1.5-4.4-3.1-6.6-4.6
		C329.3,36.3,329.9,35.8,330.5,35.3z"/>
</g>
<g id="Грудные_малая">
	<path id="_x31__27_" class="st0" d="M181.3,48.5c-0.6-1-1.3-2-1.9-3.1c-4.2-2.2-8.5-4.5-12.7-6.7c-2.2,0.2-4.4,0.5-6.7,0.8
		c-0.9,2-1.8,4-2.6,6c4.5-0.4,9-0.9,13.5-1.3C174.3,45.5,177.8,47,181.3,48.5z"/>
	<path id="_x31__26_" class="st0" d="M130.2,48.5c0.6-1,1.3-2,1.9-3.1c4.2-2.2,8.5-4.5,12.7-6.7c2.2,0.2,4.4,0.5,6.7,0.8
		c0.9,2,1.8,4,2.6,6c-4.5-0.4-9-0.9-13.5-1.3C137.2,45.5,133.7,47,130.2,48.5z"/>
</g>
<g id="Грудная_большая">
	<path id="_x31__13_" class="st0" d="M154.4,47.1c-0.1,3-0.2,5.9-0.2,8.9c-0.1,2.2-0.3,4.4-0.5,6.6c-1,1.5-2.1,3.1-3.1,4.7
		c-1.6,0.9-3.2,1.9-4.8,2.8c-2,0.4-3.9,0.8-5.9,1.1c-2.9-1.6-5.8-3.2-8.7-4.7c-2.3-2.9-4.7-5.8-7-8.8c1.5-2.3,3.1-4.7,4.6-7
		c4.1-1.6,8.2-3.2,12.3-4.8C145.6,46.3,150,46.7,154.4,47.1z"/>
	<path id="_x31__14_" class="st0" d="M157,47.1c0.1,3,0.2,5.9,0.2,8.9c0.1,2.2,0.3,4.4,0.5,6.6c1,1.5,2.1,3.1,3.1,4.7
		c1.6,0.9,3.2,1.9,4.8,2.8c2,0.4,3.9,0.8,5.9,1.1c2.9-1.6,5.8-3.2,8.7-4.7c2.3-2.9,4.7-5.8,7-8.8c-1.5-2.3-3.1-4.7-4.6-7
		c-4.1-1.6-8.2-3.2-12.3-4.8C165.9,46.3,161.5,46.7,157,47.1z"/>
</g>
<g id="Пресс">
	<path id="_x31__19_" class="st0" d="M141.4,73.1c1.7-0.4,3.4-0.7,5-1.1c1.9-1.3,3.7-2.5,5.6-3.8c1.2,0.5,2.3,0.9,3.5,1.4
		c1.2-0.5,2.4-0.9,3.6-1.4c2.1,1.3,4.3,2.7,6.4,4c1.4,0.2,2.9,0.5,4.3,0.8c0,0.8-0.1,1.6-0.1,2.4c-0.4,11.4-0.8,22.8-1.2,34.1
		c-0.8,2.4-1.6,4.7-2.4,7.1c-0.4,3.6-0.7,7.2-1.1,10.8c-1.7,2-3.4,3.9-5.1,5.8c-1.5,0-3.1,0-4.6,0c-1.3,0-2.7,0-4,0
		c-1.9-1.8-3.7-3.7-5.6-5.5c-0.3-3.7-0.6-7.4-0.9-11.2c-0.8-2.3-1.6-4.6-2.4-6.8c-0.3-11.5-0.6-23.1-1-34.6
		C141.4,74.5,141.4,73.8,141.4,73.1z"/>
</g>
<g id="Бицепс">
	<path id="_x31__16_" class="st0" d="M114.9,67.3c2.8-2.8,5.5-5.5,8.3-8.3c0.9,1.2,1.9,2.5,2.8,3.7c0.2,4.1,0.4,8.3,0.6,12.4
		c-2.3,5.8-4.7,11.5-7.1,17.3c-2.4,2.5-4.8,5-7.3,7.5c-1.1-3.8-2.3-7.6-3.4-11.4c-0.1-6.9-0.2-13.8-0.3-20.7
		C110.7,67.6,112.8,67.4,114.9,67.3z"/>
	<path id="_x31__17_" class="st0" d="M196.4,67.3c-2.8-2.8-5.5-5.5-8.3-8.3c-0.9,1.2-1.9,2.5-2.8,3.7c-0.2,4.1-0.4,8.3-0.6,12.4
		c2.4,5.8,4.7,11.5,7.1,17.3c2.4,2.5,4.9,5,7.3,7.5c1.1-3.8,2.3-7.6,3.4-11.4c0.1-6.9,0.2-13.8,0.3-20.7
		C200.6,67.6,198.5,67.4,196.4,67.3z"/>
</g>
<g id="Трицепс">
	<path id="_x32__7_" class="st0" d="M107.1,71.6c-1,4.7-2.1,9.3-3.1,14c1.1,1.5,2.2,3.1,3.3,4.6C107.3,84,107.2,77.8,107.1,71.6z"/>
	<path id="_x31__12_" class="st0" d="M119.7,94.1c-2.3,2.4-4.7,4.8-7,7.2c0.6,0.8,1.2,1.6,1.8,2.4c1.6-1.7,3.3-3.4,4.9-5.1
		C119.5,97,119.6,95.6,119.7,94.1z"/>
	<path id="_x32__3_" class="st0" d="M204.4,71.6c1,4.7,2.1,9.3,3.1,14c-1.1,1.5-2.2,3.1-3.4,4.6C204.3,83.9,204.4,77.8,204.4,71.6z"
		/>
	<path id="_x31__11_" class="st0" d="M191.2,94.1c2.3,2.4,4.6,4.8,7,7.2c-0.6,0.8-1.2,1.6-1.8,2.4c-1.6-1.7-3.3-3.4-4.9-5.1
		C191.4,97.1,191.3,95.6,191.2,94.1z"/>
	<path id="_x34__3_" class="st0" d="M260.9,56.4c-1.9,0.7-3.8,1.5-5.7,2.2c-3.1,2.3-6.3,4.6-9.4,6.9c-0.6,6.2-1.2,12.5-1.9,18.7
		c1.5,3.2,3,6.3,4.5,9.4c0.7,0.1,1.3,0.2,2,0.3c2.8-2.1,5.6-4.2,8.4-6.3c1.8-4.9,3.5-9.8,5.3-14.6C263,67.5,262,61.9,260.9,56.4z"/>
	<path id="_x34__4_" class="st0" d="M324.9,56.4c1.9,0.7,3.8,1.5,5.7,2.2c3.1,2.3,6.3,4.6,9.4,6.9c0.6,6.2,1.2,12.5,1.9,18.7
		c-1.5,3.2-3,6.3-4.5,9.4c-0.7,0.1-1.3,0.2-2,0.3c-2.8-2.1-5.6-4.2-8.4-6.3c-1.8-4.9-3.5-9.8-5.3-14.6
		C322.7,67.5,323.8,61.9,324.9,56.4z"/>
</g>
<g id="Предпелчья">
	<path id="_x31__20_" class="st0" d="M103.5,87.9c-0.6,2.3-1.2,4.6-1.9,6.9c-0.7,4.1-1.4,8.2-2.1,12.2c0.8,6.3,1.6,12.6,2.4,18.8
		c3,4.1,6,8.2,9,12.3c0.3-2.7,0.6-5.3,0.9-8c2.5-6.4,5.1-12.9,7.6-19.3c0-3.3,0-6.7-0.1-10c-1.7,1.8-3.5,3.5-5.2,5.3
		c-1.2-1.6-2.3-3.2-3.5-4.8c-0.6-1.9-1.2-3.8-1.8-5.8C107.1,93,105.3,90.4,103.5,87.9z"/>
	<path id="_x31__21_" class="st0" d="M207.9,88.2c0.6,2.3,1.2,4.6,1.9,6.9c0.7,4.1,1.4,8.2,2.1,12.2c-0.8,6.3-1.6,12.6-2.4,18.8
		c-3,4.1-6,8.2-9,12.3c-0.3-2.7-0.6-5.3-0.9-8c-2.5-6.4-5.1-12.9-7.6-19.3c0-3.3,0-6.7,0.1-10c1.7,1.8,3.5,3.5,5.2,5.3
		c1.2-1.6,2.3-3.2,3.5-4.8c0.6-1.9,1.2-3.8,1.8-5.8C204.3,93.3,206.1,90.7,207.9,88.2z"/>
	<path id="_x33__8_" class="st0" d="M242.6,86.4c1.6,3.1,3.2,6.2,4.9,9.3c1.2,0.1,2.4,0.2,3.6,0.3c2.1-1.8,4.3-3.6,6.4-5.4
		c0,2.3-0.1,4.6-0.2,6.8c-0.4,4.6-0.8,9.1-1.2,13.6c-2.5,7.2-5,14.4-7.5,21.6c-1.3,0.6-2.6,1.3-3.9,2c-0.4,1.3-0.8,2.6-1.2,4
		c-1.3,0.4-2.6,0.9-3.9,1.3c-1.1-11.1-2.2-22.1-3.3-33.2c0.8-4.8,1.7-9.7,2.5-14.6C240.1,90.3,241.4,88.4,242.6,86.4z"/>
	<path id="_x34__6_" class="st0" d="M343,86.4c-1.6,3.1-3.2,6.2-4.9,9.3c-1.2,0.1-2.4,0.2-3.6,0.3c-2.1-1.8-4.3-3.6-6.4-5.4
		c0,2.3,0.1,4.6,0.2,6.8c0.4,4.6,0.8,9.1,1.2,13.6c2.5,7.2,5,14.4,7.5,21.6c1.3,0.6,2.6,1.3,3.9,2c0.4,1.3,0.8,2.6,1.2,4
		c1.3,0.4,2.6,0.9,3.9,1.3c1.1-11.1,2.2-22.1,3.3-33.2c-0.8-4.8-1.7-9.7-2.5-14.6C345.5,90.3,344.3,88.4,343,86.4z"/>
</g>
</svg>
