<?xml version="1.0" encoding="utf-8"?>
<!-- Generator: Adobe Illustrator 24.3.0, SVG Export Plug-In . SVG Version: 6.00 Build 0)  -->
<svg version="1.1" id="Layer_1" xmlns="http://www.w3.org/2000/svg" xmlns:xlink="http://www.w3.org/1999/xlink" x="0px" y="0px"
	 viewBox="0 0 440 290" style="enable-background:new 0 0 440 290;" xml:space="preserve">
<style type="text/css">
	.st0{fill:#B3B5B8;}
</style>
<g id="Трапеция_нижняя">
	<path id="_x32__14_" class="st0" d="M257.3,35.3c10,0.3,20,0.6,30.1,0.8c1.5,2.5,3,5.1,4.5,7.7c0,14.3,0.1,28.7,0.1,43
		c-4.9-7.3-9.8-14.7-14.7-22c0.4-7.4,0.7-14.8,1.1-22.2c-4.1-0.1-8.1-0.2-12.2-0.3C263.1,39.9,260.2,37.6,257.3,35.3z"/>
	<path id="_x31__23_" class="st0" d="M328.1,35.3c-10,0.3-20,0.5-30.1,0.8c-1.5,2.5-3,5.1-4.5,7.7c0,14.3-0.1,28.7-0.1,43
		c4.9-7.3,9.8-14.7,14.7-22c-0.4-7.4-0.7-14.8-1.1-22.2c4-0.1,8.1-0.2,12.1-0.2C322.1,40,325.1,37.7,328.1,35.3z"/>
</g>
<g id="Широчайшая_x2C__ромбовидная_x2C__круглая">
	<path id="_x34__1_" class="st0" d="M182.8,73.9c-1.3,4-2.7,7.9-4,11.9c0.6-6.1,1.3-12.2,1.9-18.3c0.9-0.8,1.8-1.7,2.8-2.5
		C183.3,68,183.1,70.9,182.8,73.9z"/>
	<path id="_x33__1_" class="st0" d="M128.2,73.9c1.3,4,2.7,7.9,4,11.9c-0.6-6.1-1.3-12.2-1.9-18.3c-0.9-0.8-1.8-1.7-2.8-2.5
		C127.7,68,127.9,70.9,128.2,73.9z"/>
	<path id="_x32__4_" class="st0" d="M320,43.9c0,0,0.3,5,0.5,7.8c0.9,1.3,1.8,2.5,2.7,3.8c-1,5.5-2,11-2.9,16.4
		c-1.6,5.4-3.2,10.8-4.8,16.2c-0.3,5.4-0.6,10.7-1,16.1c-3.4,2.5-6.8,5.1-10.2,7.6c-0.9,0-2.8-0.1-2.8-0.1s-5.2-15-7.8-22.6
		c5.4-8.1,10.7-16.2,16.1-24.3c-0.4-7-1.3-20.6-1.3-20.6L320,43.9z"/>
	<path id="_x31__8_" class="st0" d="M277,44.1c0,0-0.9,13.6-1.3,20.6c5.4,8.1,10.7,16.2,16.1,24.3c-2.6,7.6-7.8,22.6-7.8,22.6
		s-1.9,0.1-2.8,0.1c-3.4-2.5-6.8-5.1-10.2-7.6c-0.4-5.4-0.7-10.7-1-16.1c-1.6-5.4-3.2-10.8-4.8-16.2c-0.9-5.4-1.9-10.9-2.9-16.4
		c0.9-1.3,1.8-2.5,2.7-3.8c0.2-2.8,0.5-7.8,0.5-7.8L277,44.1z"/>
</g>
<g id="Бицепс">
	<path id="_x31__16_" class="st0" d="M114.9,67.3c2.8-2.8,5.5-5.5,8.3-8.3c0.9,1.2,1.9,2.5,2.8,3.7c0.2,4.1,0.4,8.3,0.6,12.4
		c-2.3,5.8-4.7,11.5-7.1,17.3c-2.4,2.5-4.8,5-7.3,7.5c-1.1-3.8-2.3-7.6-3.4-11.4c-0.1-6.9-0.2-13.8-0.3-20.7
		C110.7,67.6,112.8,67.4,114.9,67.3z"/>
	<path id="_x31__17_" class="st0" d="M196.4,67.3c-2.8-2.8-5.5-5.5-8.3-8.3c-0.9,1.2-1.9,2.5-2.8,3.7c-0.2,4.1-0.4,8.3-0.6,12.4
		c2.4,5.8,4.7,11.5,7.1,17.3c2.4,2.5,4.9,5,7.3,7.5c1.1-3.8,2.3-7.6,3.4-11.4c0.1-6.9,0.2-13.8,0.3-20.7
		C200.6,67.6,198.5,67.4,196.4,67.3z"/>
</g>
<g id="Предпелчья">
	<path id="_x31__20_" class="st0" d="M103.5,87.9c-0.6,2.3-1.2,4.6-1.9,6.9c-0.7,4.1-1.4,8.2-2.1,12.2c0.8,6.3,1.6,12.6,2.4,18.8
		c3,4.1,6,8.2,9,12.3c0.3-2.7,0.6-5.3,0.9-8c2.5-6.4,5.1-12.9,7.6-19.3c0-3.3,0-6.7-0.1-10c-1.7,1.8-3.5,3.5-5.2,5.3
		c-1.2-1.6-2.3-3.2-3.5-4.8c-0.6-1.9-1.2-3.8-1.8-5.8C107.1,93,105.3,90.4,103.5,87.9z"/>
	<path id="_x31__21_" class="st0" d="M207.9,88.2c0.6,2.3,1.2,4.6,1.9,6.9c0.7,4.1,1.4,8.2,2.1,12.2c-0.8,6.3-1.6,12.6-2.4,18.8
		c-3,4.1-6,8.2-9,12.3c-0.3-2.7-0.6-5.3-0.9-8c-2.5-6.4-5.1-12.9-7.6-19.3c0-3.3,0-6.7,0.1-10c1.7,1.8,3.5,3.5,5.2,5.3
		c1.2-1.6,2.3-3.2,3.5-4.8c0.6-1.9,1.2-3.8,1.8-5.8C204.3,93.3,206.1,90.7,207.9,88.2z"/>
	<path id="_x33__8_" class="st0" d="M242.6,86.4c1.6,3.1,3.2,6.2,4.9,9.3c1.2,0.1,2.4,0.2,3.6,0.3c2.1-1.8,4.3-3.6,6.4-5.4
		c0,2.3-0.1,4.6-0.2,6.8c-0.4,4.6-0.8,9.1-1.2,13.6c-2.5,7.2-5,14.4-7.5,21.6c-1.3,0.6-2.6,1.3-3.9,2c-0.4,1.3-0.8,2.6-1.2,4
		c-1.3,0.4-2.6,0.9-3.9,1.3c-1.1-11.1-2.2-22.1-3.3-33.2c0.8-4.8,1.7-9.7,2.5-14.6C240.1,90.3,241.4,88.4,242.6,86.4z"/>
	<path id="_x34__6_" class="st0" d="M343,86.4c-1.6,3.1-3.2,6.2-4.9,9.3c-1.2,0.1-2.4,0.2-3.6,0.3c-2.1-1.8-4.3-3.6-6.4-5.4
		c0,2.3,0.1,4.6,0.2,6.8c0.4,4.6,0.8,9.1,1.2,13.6c2.5,7.2,5,14.4,7.5,21.6c1.3,0.6,2.6,1.3,3.9,2c0.4,1.3,0.8,2.6,1.2,4
		c1.3,0.4,2.6,0.9,3.9,1.3c1.1-11.1,2.2-22.1,3.3-33.2c-0.8-4.8-1.7-9.7-2.5-14.6C345.5,90.3,344.3,88.4,343,86.4z"/>
</g>
</svg>
