<?xml version="1.0" encoding="utf-8"?>
<!-- Generator: Adobe Illustrator 24.3.0, SVG Export Plug-In . SVG Version: 6.00 Build 0)  -->
<svg version="1.1" id="Layer_1" xmlns="http://www.w3.org/2000/svg" xmlns:xlink="http://www.w3.org/1999/xlink" x="0px" y="0px"
	 viewBox="0 0 440 290" style="enable-background:new 0 0 440 290;" xml:space="preserve">
<style type="text/css">
	.st0{fill:#E85D64;stroke:#010101;stroke-miterlimit:10;}
</style>
<g id="Ягодицы">
	<path id="_x32__11_" class="st0" d="M280.4,117.8c-4.6,1.2-9.1,2.5-13.7,3.8c-0.6,6.2-1.2,12.4-1.8,18.6c1.1,5.3,2.3,10.6,3.5,15.9
		c2.8,0.8,5.6,1.6,8.5,2.4c2.3-0.8,4.6-1.5,7-2.3c2.5-1.7,5-3.4,7.5-5.2c0.2-3.8,0.5-7.6,0.8-11.4c0-3.6-0.1-7.3-0.2-10.9
		C288,125.2,284.2,121.5,280.4,117.8z"/>
	<path id="_x31__18_" class="st0" d="M305.3,117.8c4.6,1.2,9.1,2.5,13.7,3.8c0.6,6.2,1.2,12.4,1.8,18.6c-1.1,5.3-2.3,10.6-3.5,15.9
		c-2.8,0.8-5.6,1.6-8.5,2.4c-2.3-0.8-4.6-1.5-7-2.3c-2.5-1.7-5-3.4-7.5-5.2c-0.2-3.8-0.5-7.6-0.8-11.4c0-3.6,0.1-7.3,0.2-10.9
		C297.7,125.2,301.5,121.5,305.3,117.8z"/>
</g>
<g id="Четырёхглавая">
	<path id="_x32__10_" class="st0" d="M264,143.1c0.9,4.6,1.8,9.1,2.7,13.7c-2.3,9-4.7,17.9-7,26.9c-0.2-7.3-0.4-14.6-0.6-21.9
		C260.7,155.5,262.3,149.3,264,143.1z"/>
	<path id="_x31__5_" class="st0" d="M321.6,143.1c-0.9,4.6-1.8,9.1-2.7,13.7c2.3,9,4.7,17.9,7,26.9c0.2-7.3,0.4-14.6,0.6-21.9
		C324.9,155.5,323.3,149.3,321.6,143.1z"/>
	<path id="_x33__2_" class="st0" d="M132.9,132.4c-2.3,5.3-4.6,10.6-6.9,15.9c-1.4,6.3-2.8,12.6-4.3,18.8c0.9,12.3,1.9,24.7,2.8,37
		c1.3-0.7,2.7-1.4,4.1-2.1c1.5-2.7,3-5.4,4.5-8c1.8,4.4,3.6,8.9,5.5,13.4c3.2,0.2,6.5,0.3,9.7,0.5c0.2-7.3,0.5-14.6,0.8-22
		c-1.8-6.9-3.7-13.7-5.5-20.6c-2-4.2-4.1-8.9-5.9-14.3C135.4,144.2,133.9,137.9,132.9,132.4z"/>
	<path id="_x33__3_" class="st0" d="M177.5,132.4c2.3,5.3,4.6,10.6,6.9,15.9c1.4,6.3,2.9,12.6,4.3,18.8c-0.9,12.3-1.9,24.7-2.9,37
		c-1.4-0.7-2.7-1.4-4.1-2.1c-1.5-2.7-3-5.4-4.5-8c-1.8,4.4-3.6,8.9-5.5,13.4c-3.2,0.2-6.5,0.3-9.7,0.5c-0.2-7.3-0.5-14.6-0.8-22
		c1.8-6.9,3.7-13.7,5.5-20.6c2-4.2,4.1-8.9,5.9-14.3C175.1,144.2,176.6,137.9,177.5,132.4z"/>
</g>
</svg>
