<?xml version="1.0" encoding="utf-8"?>
<!-- Generator: Adobe Illustrator 24.3.0, SVG Export Plug-In . SVG Version: 6.00 Build 0)  -->
<svg version="1.1" id="Layer_1" xmlns="http://www.w3.org/2000/svg" xmlns:xlink="http://www.w3.org/1999/xlink" x="0px" y="0px"
	 viewBox="0 0 440 290" style="enable-background:new 0 0 440 290;" xml:space="preserve">
<style type="text/css">
	.st0{fill:#E85D64;stroke:#010101;stroke-miterlimit:10;}
</style>
<g id="Передняя_дельта">
	<path id="_x31__7_" class="st0" d="M121.8,37.2c0,0,12.7,0.2,21.3,0.4c-4.1,2.2-8.3,4.5-12.4,6.7c-2.6,4.3-5.1,8.6-7.7,12.9
		c-2.7,2.9-5.4,5.7-8.1,8.6c-1.7,0-2.4,0-2.4,0v-5.2l0.1-8l2.8-10L121.8,37.2z"/>
	<path id="_x31__1_" class="st0" d="M195.9,42.4l2.8,10l0.1,8v5.2c0,0-0.7,0-2.4,0c-2.7-2.9-5.4-5.7-8.1-8.6
		c-2.6-4.3-5.1-8.6-7.7-12.9c-4.1-2.2-8.3-4.5-12.4-6.7c8.6-0.2,21.3-0.4,21.3-0.4L195.9,42.4z"/>
</g>
<g id="Грудные_малая">
	<path id="_x31__27_" class="st0" d="M181.3,48.5c-0.6-1-1.3-2-1.9-3.1c-4.2-2.2-8.5-4.5-12.7-6.7c-2.2,0.2-4.4,0.5-6.7,0.8
		c-0.9,2-1.8,4-2.6,6c4.5-0.4,9-0.9,13.5-1.3C174.3,45.5,177.8,47,181.3,48.5z"/>
	<path id="_x31__26_" class="st0" d="M130.2,48.5c0.6-1,1.3-2,1.9-3.1c4.2-2.2,8.5-4.5,12.7-6.7c2.2,0.2,4.4,0.5,6.7,0.8
		c0.9,2,1.8,4,2.6,6c-4.5-0.4-9-0.9-13.5-1.3C137.2,45.5,133.7,47,130.2,48.5z"/>
</g>
<g id="Грудная_большая">
	<path id="_x31__13_" class="st0" d="M154.4,47.1c-0.1,3-0.2,5.9-0.2,8.9c-0.1,2.2-0.3,4.4-0.5,6.6c-1,1.5-2.1,3.1-3.1,4.7
		c-1.6,0.9-3.2,1.9-4.8,2.8c-2,0.4-3.9,0.8-5.9,1.1c-2.9-1.6-5.8-3.2-8.7-4.7c-2.3-2.9-4.7-5.8-7-8.8c1.5-2.3,3.1-4.7,4.6-7
		c4.1-1.6,8.2-3.2,12.3-4.8C145.6,46.3,150,46.7,154.4,47.1z"/>
	<path id="_x31__14_" class="st0" d="M157,47.1c0.1,3,0.2,5.9,0.2,8.9c0.1,2.2,0.3,4.4,0.5,6.6c1,1.5,2.1,3.1,3.1,4.7
		c1.6,0.9,3.2,1.9,4.8,2.8c2,0.4,3.9,0.8,5.9,1.1c2.9-1.6,5.8-3.2,8.7-4.7c2.3-2.9,4.7-5.8,7-8.8c-1.5-2.3-3.1-4.7-4.6-7
		c-4.1-1.6-8.2-3.2-12.3-4.8C165.9,46.3,161.5,46.7,157,47.1z"/>
</g>
<g id="Трицепс">
	<path id="_x32__7_" class="st0" d="M107.1,71.6c-1,4.7-2.1,9.3-3.1,14c1.1,1.5,2.2,3.1,3.3,4.6C107.3,84,107.2,77.8,107.1,71.6z"/>
	<path id="_x31__12_" class="st0" d="M119.7,94.1c-2.3,2.4-4.7,4.8-7,7.2c0.6,0.8,1.2,1.6,1.8,2.4c1.6-1.7,3.3-3.4,4.9-5.1
		C119.5,97,119.6,95.6,119.7,94.1z"/>
	<path id="_x32__3_" class="st0" d="M204.4,71.6c1,4.7,2.1,9.3,3.1,14c-1.1,1.5-2.2,3.1-3.4,4.6C204.3,83.9,204.4,77.8,204.4,71.6z"
		/>
	<path id="_x31__11_" class="st0" d="M191.2,94.1c2.3,2.4,4.6,4.8,7,7.2c-0.6,0.8-1.2,1.6-1.8,2.4c-1.6-1.7-3.3-3.4-4.9-5.1
		C191.4,97.1,191.3,95.6,191.2,94.1z"/>
	<path id="_x34__3_" class="st0" d="M260.9,56.4c-1.9,0.7-3.8,1.5-5.7,2.2c-3.1,2.3-6.3,4.6-9.4,6.9c-0.6,6.2-1.2,12.5-1.9,18.7
		c1.5,3.2,3,6.3,4.5,9.4c0.7,0.1,1.3,0.2,2,0.3c2.8-2.1,5.6-4.2,8.4-6.3c1.8-4.9,3.5-9.8,5.3-14.6C263,67.5,262,61.9,260.9,56.4z"/>
	<path id="_x34__4_" class="st0" d="M324.9,56.4c1.9,0.7,3.8,1.5,5.7,2.2c3.1,2.3,6.3,4.6,9.4,6.9c0.6,6.2,1.2,12.5,1.9,18.7
		c-1.5,3.2-3,6.3-4.5,9.4c-0.7,0.1-1.3,0.2-2,0.3c-2.8-2.1-5.6-4.2-8.4-6.3c-1.8-4.9-3.5-9.8-5.3-14.6
		C322.7,67.5,323.8,61.9,324.9,56.4z"/>
</g>
</svg>
